<svg xmlns="http://www.w3.org/2000/svg">
  <symbol id="burger">
    <svg class="toggle__burger-icon toggle__burger-icon--open" id="toggle__burger-icon" x="0px" y="0px" viewBox="0 0 24 18" style="enable-background:new 0 0 24 18;" xml:space="preserve">
      <rect y="16" width="24" height="2"/>
      <rect y="8" width="24" height="2"/>
      <rect width="24" height="2"/>
    </svg>
  </symbol>

  <symbol id="close">
    <svg version="1.1" x="0px" y="0px" viewBox="0 0 18 18" style="enable-background:new 0 0 18 18;" xml:space="preserve">
      <polygon points="18,1.3 16.7,0 9,7.7 1.3,0 0,1.3 7.7,9 0,16.7 1.3,18 9,10.3 16.7,18 18,16.7 10.3,9 "/>
    </svg>
  </symbol>
  <symbol id="icon-search">
    <svg xmlns="http://www.w3.org/2000/svg" viewBox="0 0 20 20">
      <path d="M3.7 1.97a7.02 7.02 0 0 1 10.32 9.38l5.45 6.26c.24.28.21.7-.06.94l-1.08.94a.67.67 0 0 1-.94-.06L12
          13.24A7.03 7.03 0 0 1 3.7 1.97zm1.46 1.67a4.8 4.8 0 1 1 6.32 7.23 4.8 4.8 0 0 1-6.32-7.23z"/>
    </svg>
  </symbol>
</svg>
