<svg xmlns="http://www.w3.org/2000/svg">
  <symbol id="burger">
    <svg class="toggle__burger-icon toggle__burger-icon--open" id="toggle__burger-icon" x="0px" y="0px" viewBox="0 0 24 18" style="enable-background:new 0 0 24 18;" xml:space="preserve">
      <rect y="16" width="24" height="2"/>
      <rect y="8" width="24" height="2"/>
      <rect width="24" height="2"/>
    </svg>
  </symbol>

  <symbol id="close">
    <svg version="1.1" x="0px" y="0px" viewBox="0 0 18 18" style="enable-background:new 0 0 18 18;" xml:space="preserve">
      <polygon points="18,1.3 16.7,0 9,7.7 1.3,0 0,1.3 7.7,9 0,16.7 1.3,18 9,10.3 16.7,18 18,16.7 10.3,9 "/>
    </svg>
  </symbol>
  <symbol id="icon-search">
    <svg xmlns="http://www.w3.org/2000/svg" fillRule="evenodd" viewBox="0 0 20 20">
      <path d="M3.7 1.97a7.02 7.02 0 0 1 10.32 9.38l5.45 6.26c.24.28.21.7-.06.94l-1.08.94a.67.67 0 0 1-.94-.06L12
          13.24A7.03 7.03 0 0 1 3.7 1.97zm1.46 1.67a4.8 4.8 0 1 1 6.32 7.23 4.8 4.8 0 0 1-6.32-7.23z"/>
    </svg>
  </symbol>

  <symbol id="github">
    <svg version="1.1" xmlns="http://www.w3.org/2000/svg" xmlns:xlink="http://www.w3.org/1999/xlink" x="0px" y="0px"
         viewBox="0 0 512 512" style="enable-background:new 0 0 512 512;" xml:space="preserve">
		<path d="M255.968,5.329C114.624,5.329,0,120.401,0,262.353c0,113.536,73.344,209.856,175.104,243.872
			c12.8,2.368,17.472-5.568,17.472-12.384c0-6.112-0.224-22.272-0.352-43.712c-71.2,15.52-86.24-34.464-86.24-34.464
			c-11.616-29.696-28.416-37.6-28.416-37.6c-23.264-15.936,1.728-15.616,1.728-15.616c25.696,1.824,39.2,26.496,39.2,26.496
			c22.848,39.264,59.936,27.936,74.528,21.344c2.304-16.608,8.928-27.936,16.256-34.368
			c-56.832-6.496-116.608-28.544-116.608-127.008c0-28.064,9.984-51.008,26.368-68.992c-2.656-6.496-11.424-32.64,2.496-68
			c0,0,21.504-6.912,70.4,26.336c20.416-5.696,42.304-8.544,64.096-8.64c21.728,0.128,43.648,2.944,64.096,8.672
			c48.864-33.248,70.336-26.336,70.336-26.336c13.952,35.392,5.184,61.504,2.56,68c16.416,17.984,26.304,40.928,26.304,68.992
			c0,98.72-59.84,120.448-116.864,126.816c9.184,7.936,17.376,23.616,17.376,47.584c0,34.368-0.32,62.08-0.32,70.496
			c0,6.88,4.608,14.88,17.6,12.352C438.72,472.145,512,375.857,512,262.353C512,120.401,397.376,5.329,255.968,5.329z"/>
    </svg>
  </symbol>

  <symbol id="soundcloud">
    <svg xmlns="http://www.w3.org/2000/svg" viewBox="0 208.952 1048.713 581.696">
      <path d="M0 686.216c0 13.014 4.718 22.854 14.152 29.524 9.435 6.669 19.52 9.027 30.256 7.076 10.085-1.952 17.161-5.531 21.229-10.736 4.066-5.205 6.1-13.827 6.1-25.864v-141.52c0-10.086-3.497-18.626-10.492-25.62-6.994-6.995-15.534-10.492-25.62-10.492-9.76 0-18.137 3.497-25.132 10.492C3.498 526.07 0 534.61 0 544.696v141.52zm112.24 60.512c0 9.436 3.335 16.511 10.004 21.229 6.67 4.718 15.21 7.076 25.62 7.076 10.736 0 19.438-2.359 26.108-7.076 6.669-4.717 10.004-11.793 10.004-21.229V416.84c0-9.76-3.498-18.138-10.492-25.132-6.995-6.994-15.535-10.492-25.62-10.492-9.76 0-18.138 3.498-25.132 10.492-6.995 6.995-10.492 15.372-10.492 25.132v329.888zm111.752 15.616c0 9.435 3.416 16.511 10.248 21.229 6.832 4.717 15.616 7.076 26.353 7.076 10.41 0 18.95-2.359 25.619-7.076 6.67-4.718 10.005-11.794 10.005-21.229V461.248c0-10.085-3.498-18.707-10.492-25.864-6.995-7.157-15.372-10.735-25.132-10.735-10.086 0-18.707 3.578-25.864 10.735s-10.736 15.779-10.736 25.864v301.096zm112.24 1.464c0 17.894 12.037 26.841 36.112 26.841 24.074 0 36.111-8.947 36.111-26.841v-488c0-27.328-8.296-42.781-24.888-46.36-10.736-2.603-21.31.488-31.72 9.272-10.411 8.784-15.616 21.146-15.616 37.088v488zm114.193 14.152V247.016c0-16.917 5.042-27.002 15.128-30.256 21.797-5.205 43.432-7.808 64.904-7.808 49.775 0 96.136 11.712 139.079 35.136 42.944 23.424 77.674 55.388 104.188 95.892 26.515 40.505 41.887 85.156 46.116 133.957 19.845-8.459 40.991-12.688 63.439-12.688 45.547 0 84.506 16.104 116.876 48.312 32.371 32.209 48.557 70.923 48.557 116.145 0 45.547-16.186 84.424-48.557 116.632-32.37 32.208-71.166 48.312-116.388 48.312l-424.56-.488c-2.929-.976-5.125-2.766-6.589-5.368s-2.193-4.882-2.193-6.834z"/>
    </svg>
  </symbol>

  <symbol id="facebook">
    <svg xmlns="http://www.w3.org/2000/svg" viewBox="88.428 12.828 107.543 207.085">
      <path d="M158.232 219.912v-94.461h31.707l4.747-36.813h-36.454V65.134c0-10.658 2.96-17.922 18.245-17.922l19.494-.009V14.278c-3.373-.447-14.944-1.449-28.406-1.449-28.106 0-47.348 17.155-47.348 48.661v27.149H88.428v36.813h31.788v94.461l38.016-.001z"/>
    </svg>
  </symbol>
</svg>
